<svg width="179" height="40" viewBox="0 0 179 40" fill="none" xmlns="http://www.w3.org/2000/svg">
<g clip-path="url(#clip0_1_1006)">
<path d="M22.141 1.14327C22.1154 0.966308 22.0561 0.79629 21.9664 0.642969C21.8767 0.489648 21.7584 0.356043 21.6184 0.24982C21.4783 0.143597 21.3193 0.0668458 21.1503 0.0239719C20.9813 -0.0189021 20.8058 -0.0270553 20.6337 -1.99813e-05L15.0876 0.917618C15.2384 2.05428 14.9502 3.20647 14.2846 4.12732C13.6191 5.04817 12.6292 5.66444 11.527 5.8441C10.4248 6.02376 9.29798 5.75252 8.38797 5.08848C7.47797 4.42445 6.85715 3.42044 6.65852 2.29157L1.11233 3.19416C0.940188 3.2205 0.774798 3.28151 0.625651 3.37371C0.476504 3.46591 0.346536 3.58748 0.243204 3.73144C0.139873 3.8754 0.0652112 4.03892 0.0235043 4.21262C-0.0182025 4.38631 -0.0261338 4.56676 0.000165576 4.74362L5.25856 38.8417C5.28529 39.0176 5.34551 39.1863 5.43577 39.3383C5.52603 39.4902 5.64455 39.6224 5.78455 39.7271C5.92456 39.8319 6.0833 39.9073 6.25168 39.949C6.42006 39.9906 6.59478 39.9977 6.76583 39.9699L12.312 39.0673C12.1367 37.9163 12.4134 36.7408 13.0812 35.7995C13.749 34.8581 14.7532 34.2281 15.8729 34.0479C16.9926 33.8677 18.1361 34.1521 19.0518 34.8386C19.9675 35.5251 20.5804 36.5574 20.7557 37.7084L26.3019 36.8058C26.4728 36.7784 26.6368 36.7164 26.7844 36.6236C26.932 36.5307 27.0603 36.4088 27.1618 36.2648C27.2634 36.1207 27.3362 35.9575 27.3762 35.7844C27.4161 35.6114 27.4223 35.4319 27.3945 35.2563L22.141 1.14327Z" fill="white"/>
<path d="M33.3894 30.9239L43.4769 8.62985C43.5288 8.52501 43.6066 8.43602 43.7025 8.37178C43.7984 8.30754 43.909 8.27031 44.0232 8.2638H44.3452C44.4603 8.26945 44.5719 8.30628 44.6687 8.37056C44.7655 8.43485 44.8441 8.5243 44.8964 8.62985L54.9839 30.9239C55.0326 31.0171 55.056 31.122 55.0515 31.2276C55.047 31.3332 55.0148 31.4356 54.9583 31.524C54.9018 31.6124 54.8232 31.6834 54.7306 31.7296C54.6381 31.7758 54.5352 31.7954 54.4327 31.7864H50.8572C50.2767 31.7864 50.0182 31.5859 49.7304 30.959L48.5695 28.3415H39.7892L38.6429 30.9891C38.5545 31.2299 38.395 31.4362 38.1868 31.5792C37.9787 31.7222 37.7322 31.7946 37.4819 31.7864H33.9406C33.8381 31.7954 33.7352 31.7758 33.6427 31.7296C33.5501 31.6834 33.4715 31.6124 33.415 31.524C33.3585 31.4356 33.3263 31.3332 33.3218 31.2276C33.3173 31.122 33.3407 31.0171 33.3894 30.9239ZM46.6378 23.8336L44.1988 18.3678H44.1647L41.7257 23.8336H46.6378ZM56.657 9.22657C56.657 9.05986 56.7211 8.89991 56.8353 8.78157C56.9495 8.66322 57.1046 8.59607 57.2668 8.59475H61.1008C61.2619 8.60096 61.4147 8.66952 61.5287 8.78669C61.6427 8.90386 61.7094 9.06098 61.7154 9.22657V26.9174H69.3835C69.464 26.9168 69.5438 26.9325 69.6184 26.9637C69.6929 26.9949 69.7607 27.041 69.8178 27.0992C69.875 27.1575 69.9203 27.2268 69.9513 27.3032C69.9822 27.3796 69.9981 27.4615 69.9981 27.5442V31.1546C69.9981 31.3222 69.9334 31.4829 69.8181 31.6014C69.7029 31.7199 69.5465 31.7864 69.3835 31.7864H57.2668C57.1046 31.7851 56.9495 31.718 56.8353 31.5996C56.7211 31.4813 56.657 31.3213 56.657 31.1546V9.22657ZM72.1542 9.22657C72.1542 9.059 72.2189 8.89829 72.3342 8.7798C72.4495 8.66132 72.6058 8.59475 72.7688 8.59475H76.5833C76.7439 8.60103 76.8962 8.66976 77.0094 8.78705C77.1226 8.90434 77.1882 9.06143 77.1931 9.22657V26.9174H84.8758C85.0375 26.9174 85.1926 26.9835 85.3069 27.101C85.4213 27.2186 85.4855 27.378 85.4855 27.5442V31.1546C85.4855 31.3213 85.4214 31.4813 85.3072 31.5996C85.193 31.718 85.0379 31.7851 84.8758 31.7864H72.7688C72.6058 31.7864 72.4495 31.7199 72.3342 31.6014C72.2189 31.4829 72.1542 31.3222 72.1542 31.1546V9.22657ZM97.9193 8.2638C100.214 8.25885 102.459 8.95352 104.37 10.26C106.281 11.5664 107.772 13.426 108.655 15.6036C109.538 17.7812 109.773 20.1791 109.33 22.4939C108.888 24.8088 107.787 26.9368 106.168 28.6088C104.549 30.2809 102.484 31.4219 100.235 31.8876C97.9847 32.3533 95.6511 32.1229 93.5288 31.2253C91.4064 30.3278 89.5905 28.8035 88.3108 26.8451C87.0311 24.8868 86.345 22.5824 86.3392 20.2232C86.3321 18.6553 86.6264 17.1014 87.2052 15.6507C87.784 14.2 88.6359 12.8812 89.7119 11.7699C90.7879 10.6587 92.0669 9.77689 93.4754 9.1752C94.8839 8.57351 96.3941 8.26378 97.9193 8.2638ZM97.9193 26.8171C99.1976 26.8241 100.449 26.4403 101.515 25.7146C102.58 24.9888 103.412 23.9539 103.905 22.7412C104.397 21.5284 104.527 20.1927 104.28 18.9035C104.032 17.6143 103.417 16.4299 102.513 15.5007C101.609 14.5715 100.457 13.9395 99.2031 13.6848C97.949 13.4301 96.6496 13.5644 95.4699 14.0704C94.2902 14.5765 93.2834 15.4316 92.5774 16.5271C91.8714 17.6226 91.4981 18.9091 91.5049 20.2232C91.5164 21.9684 92.1959 23.6387 93.3963 24.8727C94.5968 26.1068 96.2217 26.8053 97.9193 26.8171ZM122.924 8.2638C124.358 8.21959 125.788 8.4695 127.128 8.99897C128.467 9.52843 129.692 10.3269 130.728 11.3477C130.795 11.4025 130.85 11.4717 130.889 11.5503C130.928 11.629 130.949 11.7153 130.953 11.8034C130.956 11.8915 130.941 11.9793 130.908 12.0608C130.875 12.1422 130.825 12.2154 130.762 12.2753L128.25 14.958C128.198 15.0128 128.135 15.0562 128.066 15.0859C127.997 15.1155 127.923 15.1308 127.848 15.1308C127.773 15.1308 127.699 15.1155 127.63 15.0859C127.561 15.0562 127.498 15.0128 127.445 14.958C126.243 13.8706 124.696 13.27 123.094 13.2682C119.45 13.2682 116.753 16.3821 116.753 20.0928C116.732 20.9644 116.881 21.8315 117.189 22.6435C117.498 23.4555 117.961 24.1962 118.552 24.8222C119.142 25.4482 119.848 25.947 120.628 26.2895C121.408 26.632 122.246 26.8114 123.094 26.8171C124.67 26.8158 126.197 26.2542 127.416 25.2276C127.535 25.1269 127.685 25.0744 127.839 25.08C127.992 25.0855 128.139 25.1487 128.25 25.2577L130.767 28.0106C130.871 28.1369 130.925 28.2985 130.919 28.4637C130.912 28.6288 130.846 28.7856 130.733 28.9031C128.645 30.9895 125.84 32.1446 122.928 32.1174C121.385 32.1499 119.85 31.8655 118.415 31.2807C116.98 30.696 115.672 29.8226 114.569 28.7119C113.467 27.6012 112.59 26.2754 111.992 24.8122C111.394 23.349 111.086 21.7777 111.086 20.1906C111.086 18.6034 111.394 17.0322 111.992 15.569C112.59 14.1058 113.467 12.78 114.569 11.6693C115.672 10.5585 116.98 9.68522 118.415 9.10046C119.85 8.5157 121.385 8.23126 122.928 8.2638H122.924ZM133.655 9.22657C133.66 9.06059 133.726 8.9028 133.84 8.78538C133.955 8.66796 134.108 8.59978 134.27 8.59475H138.133C138.294 8.60096 138.447 8.66952 138.561 8.78669C138.675 8.90386 138.741 9.06098 138.747 9.22657V31.1546C138.741 31.3202 138.675 31.4773 138.561 31.5945C138.447 31.7117 138.294 31.7802 138.133 31.7864H134.27C134.108 31.7814 133.955 31.7132 133.84 31.5958C133.726 31.4784 133.66 31.3206 133.655 31.1546V9.22657ZM141.864 9.19147C141.872 9.02963 141.94 8.87708 142.055 8.76583C142.169 8.65458 142.321 8.59327 142.479 8.59475H143.138C143.494 8.63541 143.828 8.79784 144.084 9.05608L156.142 20.9854H156.176V9.22657C156.176 9.14383 156.191 9.06179 156.221 8.98516C156.252 8.90853 156.296 8.83884 156.353 8.78011C156.41 8.72137 156.477 8.67475 156.552 8.64294C156.626 8.61112 156.706 8.59475 156.786 8.59475H160.654C160.815 8.60103 160.967 8.66976 161.08 8.78705C161.193 8.90434 161.259 9.06143 161.264 9.22657V31.1897C161.258 31.3511 161.19 31.5036 161.077 31.615C160.963 31.7264 160.811 31.7879 160.654 31.7864H160.03C159.831 31.7639 159.639 31.6998 159.465 31.598C159.292 31.4963 159.14 31.359 159.02 31.1947L146.991 18.7991H146.957V31.1546C146.957 31.238 146.941 31.3206 146.91 31.3976C146.879 31.4745 146.833 31.5444 146.775 31.6032C146.718 31.6619 146.649 31.7083 146.574 31.7398C146.499 31.7712 146.419 31.7871 146.338 31.7864H142.499C142.338 31.7801 142.186 31.7114 142.073 31.5941C141.959 31.4768 141.894 31.3197 141.889 31.1546L141.864 9.19147ZM178.39 13.4637C178.472 13.4671 178.554 13.4534 178.63 13.4234C178.707 13.3933 178.777 13.3476 178.836 13.289C178.894 13.2304 178.941 13.1601 178.973 13.0824C179.004 13.0047 179.02 12.9212 179.02 12.8369V9.22657C179.02 9.14383 179.005 9.06179 178.975 8.98516C178.944 8.90853 178.899 8.83884 178.843 8.78011C178.786 8.72137 178.719 8.67475 178.644 8.64294C178.57 8.61112 178.49 8.59475 178.41 8.59475H173.829L175.425 7.44645C175.49 7.38053 175.542 7.30135 175.576 7.2139C175.61 7.12646 175.627 7.03265 175.624 6.93841C175.621 6.84417 175.599 6.75153 175.56 6.66636C175.521 6.58119 175.465 6.50532 175.395 6.44357L173.903 4.78881C173.683 4.53307 173.225 4.70858 173.064 4.88408L169.371 8.52455C169.36 8.5441 169.347 8.56256 169.332 8.57971H165.049C164.886 8.57971 164.73 8.64627 164.615 8.76476C164.499 8.88325 164.435 9.04396 164.435 9.21152V31.1546C164.435 31.3222 164.499 31.4829 164.615 31.6014C164.73 31.7199 164.886 31.7864 165.049 31.7864H178.39C178.472 31.7891 178.554 31.7748 178.631 31.7441C178.707 31.7135 178.777 31.6674 178.836 31.6083C178.895 31.5493 178.941 31.4787 178.973 31.4008C179.004 31.3228 179.02 31.2391 179.02 31.1546V27.5442C179.02 27.4617 179.005 27.3799 178.974 27.3036C178.944 27.2272 178.899 27.1579 178.842 27.0995C178.786 27.0412 178.718 26.995 178.644 26.9638C178.57 26.9325 178.49 26.9168 178.41 26.9174H169.483V22.4446H176.829C176.992 22.4446 177.149 22.378 177.264 22.2595C177.379 22.141 177.444 21.9803 177.444 21.8128V18.2024C177.438 18.0373 177.371 17.8807 177.257 17.7644C177.143 17.648 176.99 17.5805 176.829 17.5756H169.464V13.4637H178.39ZM15.346 27.4941L14.707 23.9238C14.6293 23.6393 14.4694 23.3858 14.2484 23.1967C13.5802 22.6602 11.7705 23.7985 12.6192 19.6866C13.468 15.5748 14.6679 17.38 15.4923 17.1794C15.772 17.0926 16.0179 16.9171 16.1947 16.678L18.1898 13.6693C18.3079 13.4862 18.3642 13.2683 18.3501 13.049C18.336 12.8298 18.2523 12.6214 18.1117 12.4559C17.5557 11.8692 16.6484 11.0167 15.9801 10.8663C14.5167 10.5454 10.9217 12.9372 9.66319 19.0097C8.40469 25.0822 10.7315 28.8079 12.1948 29.1288C12.8777 29.2792 14.0338 28.8731 14.7704 28.5672C14.9646 28.4756 15.1242 28.321 15.2246 28.1271C15.3251 27.9333 15.3609 27.7109 15.3265 27.4941" fill="#262626"/>
</g>
<defs>
<clipPath id="clip0_1_1006">
<rect width="179" height="40" fill="white"/>
</clipPath>
</defs>
</svg>
